<?xml version="1.0" encoding="UTF-8" standalone="no"?>
<!-- Created with Inkscape (http://www.inkscape.org/) -->

<svg
   width="79.546043"
   height="78.850319"
   id="svg3070"
   version="1.1"
   inkscape:version="1.3.2 (091e20e, 2023-11-25, custom)"
   sodipodi:docname="linkedin_logo_dark.svg"
   xmlns:inkscape="http://www.inkscape.org/namespaces/inkscape"
   xmlns:sodipodi="http://sodipodi.sourceforge.net/DTD/sodipodi-0.dtd"
   xmlns="http://www.w3.org/2000/svg"
   xmlns:svg="http://www.w3.org/2000/svg"
   xmlns:rdf="http://www.w3.org/1999/02/22-rdf-syntax-ns#"
   xmlns:cc="http://creativecommons.org/ns#"
   xmlns:dc="http://purl.org/dc/elements/1.1/">
  <defs
     id="defs3072">
    <inkscape:path-effect
       effect="powerclip"
       id="path-effect7"
       is_visible="true"
       lpeversion="1"
       inverse="true"
       flatten="false"
       hide_clip="false"
       message="Use fill-rule evenodd on &lt;b&gt;fill and stroke&lt;/b&gt; dialog if no flatten result after convert clip to paths." />
    <clipPath
       clipPathUnits="userSpaceOnUse"
       id="clipPath6">
      <g
         id="g7"
         style="display:none">
        <path
           d="M 261.8728,37.749 V 71.543 H 250.6403 V 37.749 Z m -5.6163,38.408 c 3.917,0 6.355,2.595 6.355,5.838 -0.073,3.316 -2.438,5.839 -6.2807,5.839 -3.8423,0 -6.3545,-2.523 -6.3545,-5.839 0,-3.243 2.4375,-5.838 6.207,-5.838 h 0.073 z"
           style="fill:#40e17e;fill-opacity:1;fill-rule:evenodd;stroke:none"
           id="path6"
           inkscape:connector-curvature="0" />
        <path
           d="m 268.0881,37.749 h 11.2324 v 18.872 c 0,1.01 0.073,2.019 0.3696,2.741 0.812,2.018 2.6602,4.108 5.7632,4.108 4.0645,0 5.6904,-3.099 5.6904,-7.642 V 37.749 h 11.2315 v 19.377 c 0,10.38 -5.5415,15.21 -12.9316,15.21 -6.0596,0 -8.7198,-3.387 -10.1978,-5.694 h 0.075 v 4.901 h -11.2324 c 0.1474,-3.171 0,-33.794 0,-33.794 z"
           style="fill:#40e17e;fill-opacity:1;fill-rule:evenodd;stroke:none"
           id="path7"
           inkscape:connector-curvature="0" />
      </g>
      <path
         id="lpe_path-effect7"
         class="powerclip"
         d="m 234.3298,20.558 h 84.3672 v 84.839 h -84.3672 z m 27.543,17.191 h -11.2325 v 33.794 h 11.2325 z m -5.6163,38.408 h -2e-4 -0.073 c -3.7695,0 -6.207,2.595 -6.207,5.838 0,3.316 2.5122,5.839 6.3545,5.839 3.8427,0 6.2077,-2.523 6.2807,-5.839 0,-3.243 -2.438,-5.838 -6.355,-5.838 z m 11.8316,-38.408 h 3e-4 c 0,0 0.1474,30.623 0,33.794 h 11.2324 v -4.901 h -0.075 c 1.478,2.307 4.1382,5.694 10.1978,5.694 7.3901,0 12.9316,-4.83 12.9316,-15.21 V 37.749 h -11.2315 v 18.079 c 0,4.543 -1.6259,7.642 -5.6904,7.642 -3.103,0 -4.9512,-2.09 -5.7632,-4.108 -0.2966,-0.722 -0.3696,-1.731 -0.3696,-2.741 V 37.749 Z" />
    </clipPath>
  </defs>
  <sodipodi:namedview
     id="base"
     pagecolor="#ffffff"
     bordercolor="#666666"
     borderopacity="1.0"
     inkscape:pageopacity="0.0"
     inkscape:pageshadow="2"
     inkscape:zoom="7.9195959"
     inkscape:cx="40.216698"
     inkscape:cy="46.025075"
     inkscape:document-units="px"
     inkscape:current-layer="g3019"
     showgrid="false"
     fit-margin-top="0"
     fit-margin-left="0"
     fit-margin-right="0"
     fit-margin-bottom="0"
     inkscape:window-width="2560"
     inkscape:window-height="1361"
     inkscape:window-x="-9"
     inkscape:window-y="-9"
     inkscape:window-maximized="1"
     inkscape:showpageshadow="0"
     inkscape:pagecheckerboard="1"
     inkscape:deskcolor="#505050" />
  <metadata
     id="metadata3075">
    <rdf:RDF>
      <cc:Work
         rdf:about="">
        <dc:format>image/svg+xml</dc:format>
        <dc:type
           rdf:resource="http://purl.org/dc/dcmitype/StillImage" />
      </cc:Work>
    </rdf:RDF>
  </metadata>
  <g
     inkscape:label="Layer 1"
     inkscape:groupmode="layer"
     id="layer1"
     transform="translate(-412.00593,-394.57195)">
    <g
       transform="matrix(1.018827,0,0,-1.018827,170.09932,498.03288)"
       id="g3019">
      <path
         d="m 239.3298,95.036 c 0,2.96 2.4604,5.361 5.4956,5.361 h 63.376 c 3.0351,0 5.4956,-2.401 5.4956,-5.361 V 30.919 c 0,-2.961 -2.4605,-5.361 -5.4956,-5.361 h -63.376 c -3.0352,0 -5.4956,2.4 -5.4956,5.361 z"
         style="fill:#ffffff;fill-opacity:1;fill-rule:nonzero;stroke:none"
         id="path14"
         inkscape:connector-curvature="0"
         clip-path="url(#clipPath6)"
         inkscape:path-effect="#path-effect7"
         inkscape:original-d="m 239.3298,95.036 c 0,2.96 2.4604,5.361 5.4956,5.361 h 63.376 c 3.0351,0 5.4956,-2.401 5.4956,-5.361 V 30.919 c 0,-2.961 -2.4605,-5.361 -5.4956,-5.361 h -63.376 c -3.0352,0 -5.4956,2.4 -5.4956,5.361 z" />
    </g>
  </g>
</svg>
